<?xml version="1.0" encoding="utf-8"?>
<!-- Generator: Adobe Illustrator 16.0.0, SVG Export Plug-In . SVG Version: 6.00 Build 0)  -->
<!DOCTYPE svg PUBLIC "-//W3C//DTD SVG 1.1//EN" "http://www.w3.org/Graphics/SVG/1.1/DTD/svg11.dtd">
<svg version="1.1" id="Layer_1" xmlns="http://www.w3.org/2000/svg" xmlns:xlink="http://www.w3.org/1999/xlink" x="0px" y="0px"
	 width="300px" height="60px" viewBox="0 0 300 60" enable-background="new 0 0 300 60" xml:space="preserve">
<path fill="#FFFFFF" d="M48.083,22.799l11.961-11.957C70.618,0.264,87.778,0.264,98.357,10.844
	c10.574,10.578,10.576,27.734,0,38.312c-10.576,10.576-27.737,10.58-38.312,0.002l1.118-1.119l11.196-11.195
	c3.776,3.771,9.906,3.771,13.684-0.006c3.774-3.773,3.779-9.901,0-13.68c-3.778-3.777-9.906-3.777-13.684-0.002l-6.841,6.843
	l-6.16-6.157l-5.114,5.115L48.083,22.799z"/>
<path fill="#FFFFFF" d="M46.352,49.158c-10.574,10.58-27.733,10.576-38.31-0.002c-10.582-10.578-10.582-27.732,0-38.312
	c10.577-10.58,27.736-10.58,38.31-0.002l-0.606,0.607L34.644,22.555l-0.605,0.602c-3.776-3.775-9.906-3.775-13.683,0.002
	c-3.779,3.775-3.779,9.904,0,13.68c3.777,3.777,9.907,3.777,13.683,0.006l11.959-11.961l6.16,6.158l-5.12,5.115l6.162,6.158
	L46.352,49.158z"/>
<path fill="#FFFFFF" d="M272.068,9.178h5.249v7.887h0.233c0.435-0.887,1.115-1.529,2.034-1.918c0.924-0.393,2.216-0.59,3.879-0.59
	c1.561,0,2.808,0.135,3.759,0.407c0.943,0.272,1.714,0.723,2.315,1.345c0.611,0.629,1.023,1.348,1.238,2.145
	c0.213,0.795,0.312,2.016,0.312,3.67v6.844h-5.246v-6.844c0-0.829-0.042-1.438-0.128-1.83c-0.075-0.391-0.235-0.707-0.468-0.953
	c-0.504-0.546-1.659-0.825-3.469-0.825c-1.842,0-3.064,0.304-3.661,0.903c-0.307,0.297-0.524,0.699-0.631,1.191
	c-0.117,0.5-0.168,1.282-0.168,2.354v6.003h-5.249V9.178z M264.867,23.328h5.348c-0.048,1.166-0.165,2.062-0.355,2.677
	c-0.186,0.614-0.509,1.153-0.963,1.61c-0.678,0.688-1.586,1.143-2.731,1.372c-1.137,0.228-3.084,0.344-5.839,0.344
	c-2.17,0-3.783-0.094-4.859-0.275c-1.087-0.187-1.973-0.523-2.682-1.019c-0.673-0.479-1.144-1.172-1.402-2.062
	c-0.265-0.896-0.395-2.271-0.395-4.131c0-1.688,0.121-2.965,0.363-3.827c0.239-0.86,0.671-1.538,1.293-2.044
	c0.674-0.539,1.57-0.91,2.695-1.114c1.122-0.199,2.869-0.308,5.25-0.308c2.324,0,4.08,0.108,5.267,0.318
	c1.186,0.211,2.112,0.59,2.777,1.121c0.564,0.453,0.952,1.011,1.181,1.675c0.23,0.657,0.365,1.649,0.417,2.966h-5.353
	c-0.09-0.805-0.442-1.359-1.069-1.664c-0.616-0.302-1.7-0.455-3.231-0.455c-1.56,0-2.645,0.141-3.264,0.436
	c-0.387,0.193-0.666,0.523-0.827,0.996c-0.162,0.461-0.25,1.161-0.25,2.076c0,0.9,0.092,1.565,0.265,1.992
	c0.176,0.424,0.478,0.731,0.924,0.923c0.658,0.29,1.732,0.437,3.219,0.437c1.553,0,2.608-0.141,3.178-0.425
	C264.402,24.665,264.746,24.128,264.867,23.328 M244.136,20.215c-0.021-0.553-0.062-0.932-0.107-1.141
	c-0.056-0.205-0.162-0.393-0.314-0.56c-0.455-0.46-1.67-0.698-3.64-0.698c-1.772,0-2.94,0.153-3.513,0.468
	c-0.565,0.306-0.866,0.949-0.909,1.931H244.136z M244.061,24.477h5.237c-0.151,1.522-0.611,2.621-1.398,3.287
	c-0.672,0.591-1.63,0.994-2.87,1.224c-1.236,0.228-3.093,0.344-5.564,0.344c-2.044,0-3.604-0.097-4.696-0.299
	c-1.092-0.199-1.963-0.538-2.6-1.025c-0.674-0.509-1.136-1.194-1.389-2.048c-0.26-0.857-0.376-2.172-0.376-3.947
	c0-1.338,0.049-2.338,0.138-3.008c0.102-0.674,0.286-1.281,0.562-1.824c0.556-1.119,1.568-1.852,3.039-2.188
	c1.259-0.293,3.206-0.436,5.861-0.436c2.334,0,3.984,0.085,4.944,0.246c1.694,0.287,2.867,0.928,3.507,1.906
	c0.637,0.98,0.958,2.631,0.958,4.954c0,0.226-0.009,0.694-0.034,1.423h-13.727c0,0.709,0.047,1.225,0.14,1.532
	c0.089,0.306,0.269,0.565,0.54,0.766c0.522,0.389,1.7,0.585,3.537,0.585c1.173,0,2.049-0.049,2.633-0.141
	c0.586-0.092,0.985-0.246,1.197-0.457C243.871,25.199,243.99,24.9,244.061,24.477 M214.931,11.687h5.252v3.235h8.304v3.752h-8.304
	v4.091c0,1.095,0.078,1.789,0.231,2.073c0.263,0.481,0.881,0.72,1.854,0.72c1.02,0,1.648-0.231,1.882-0.7
	c0.103-0.18,0.163-0.36,0.176-0.539c0.02-0.172,0.03-0.637,0.03-1.368h4.8c-0.02,1.341-0.102,2.315-0.239,2.915
	c-0.143,0.6-0.415,1.152-0.82,1.666c-0.526,0.664-1.247,1.137-2.167,1.399c-0.928,0.265-2.291,0.4-4.116,0.4
	c-1.675,0-2.93-0.094-3.743-0.275c-0.816-0.187-1.479-0.529-1.993-1.032c-0.378-0.368-0.646-0.769-0.814-1.205
	c-0.162-0.432-0.26-1.031-0.296-1.795c-0.025-0.28-0.035-1.035-0.035-2.259v-4.091h-2.771v-3.752h2.771V11.687z"/>
<path fill="#FFFFFF" d="M205.869,21.086c-0.017-0.553-0.059-0.933-0.11-1.141c-0.054-0.207-0.156-0.396-0.31-0.557
	c-0.454-0.469-1.667-0.699-3.643-0.699c-1.765,0-2.939,0.152-3.509,0.465c-0.567,0.307-0.87,0.95-0.911,1.932H205.869z
	 M205.797,25.346h5.235c-0.147,1.521-0.615,2.622-1.396,3.289c-0.67,0.59-1.634,0.995-2.868,1.223
	c-1.238,0.225-3.094,0.342-5.57,0.342c-2.039,0-3.604-0.1-4.693-0.299c-1.096-0.196-1.965-0.539-2.601-1.023
	c-0.67-0.508-1.138-1.191-1.391-2.049c-0.248-0.855-0.374-2.17-0.374-3.949c0-1.334,0.049-2.334,0.141-3.01
	c0.102-0.67,0.282-1.275,0.555-1.818c0.56-1.119,1.575-1.852,3.045-2.188c1.258-0.292,3.207-0.436,5.854-0.436
	c2.343,0,3.99,0.087,4.95,0.248c1.695,0.283,2.87,0.924,3.509,1.902c0.64,0.984,0.954,2.634,0.954,4.956
	c0,0.222-0.011,0.691-0.03,1.419h-13.729c0,0.712,0.045,1.229,0.141,1.533c0.089,0.309,0.271,0.564,0.541,0.77
	c0.522,0.385,1.7,0.578,3.537,0.578c1.174,0,2.049-0.048,2.627-0.137c0.588-0.09,0.989-0.246,1.199-0.459
	C205.608,26.066,205.729,25.768,205.797,25.346 M184.9,10.048h5.252V29.84H184.9V10.048z M173.061,19.389
	c-1.808,0-3.021,0.161-3.639,0.492c-0.395,0.206-0.667,0.534-0.823,0.969c-0.147,0.434-0.223,1.111-0.223,2.029
	c0,0.984,0.091,1.683,0.268,2.096c0.182,0.407,0.524,0.701,1.038,0.877c0.716,0.262,1.864,0.387,3.459,0.387
	c1.846,0,3.075-0.191,3.683-0.574c0.321-0.207,0.549-0.533,0.669-0.975c0.124-0.445,0.188-1.115,0.188-1.997
	c0-0.929-0.082-1.594-0.253-2.002c-0.167-0.405-0.486-0.702-0.95-0.885C175.781,19.525,174.645,19.389,173.061,19.389
	 M163.126,10.048h5.25v7.625h0.231c0.532-0.87,1.208-1.46,2.029-1.774c0.827-0.312,2.108-0.471,3.859-0.471
	c1.729,0,3.116,0.104,4.163,0.307c1.051,0.202,1.881,0.533,2.492,0.996c0.681,0.512,1.154,1.191,1.405,2.046
	c0.252,0.853,0.376,2.184,0.376,3.999c0,1.178-0.034,2.082-0.108,2.704c-0.073,0.621-0.21,1.198-0.413,1.734
	c-0.405,1.099-1.191,1.872-2.349,2.315c-1.159,0.449-2.971,0.67-5.427,0.67c-2.453,0-4.143-0.284-5.068-0.841
	c-0.417-0.255-0.82-0.704-1.206-1.361h-0.291v1.843h-4.944V10.048z M151.209,23.912c-1.769,0-2.863,0.101-3.293,0.311
	c-0.506,0.256-0.764,0.635-0.764,1.146c0,0.574,0.25,0.958,0.752,1.162c0.505,0.209,1.457,0.303,2.868,0.303
	c1.837,0,3.084-0.107,3.744-0.333c0.659-0.22,0.982-0.642,0.982-1.262c0-0.558-0.285-0.946-0.854-1.158
	C154.382,23.988,153.238,23.928,151.209,23.912 M147.699,20.199h-5.229c0.061-1.098,0.296-1.922,0.69-2.481
	c0.631-0.902,1.603-1.511,2.924-1.826c1.317-0.32,3.55-0.48,6.697-0.48c2.309,0,3.88,0.09,4.718,0.265
	c0.847,0.171,1.565,0.554,2.153,1.14c0.464,0.468,0.78,1.024,0.953,1.681c0.165,0.646,0.249,1.612,0.249,2.887v8.457h-5.049v-1.915
	h-0.248c-0.383,0.812-0.997,1.397-1.84,1.766c-0.448,0.198-1.07,0.326-1.873,0.397c-0.798,0.074-2.078,0.111-3.826,0.111
	c-1.413,0-2.493-0.092-3.266-0.268c-0.758-0.178-1.374-0.486-1.84-0.924c-0.678-0.641-1.016-1.703-1.016-3.174
	c0-1.634,0.404-2.811,1.206-3.537c0.637-0.572,1.476-0.942,2.524-1.115c1.044-0.172,2.969-0.264,5.771-0.264
	c1.209,0,2.075,0.068,2.589,0.216c0.521,0.136,0.979,0.435,1.388,0.89h0.229v-0.74c0-1.102-0.203-1.79-0.609-2.071
	c-0.405-0.282-1.4-0.422-2.997-0.422c-1.885,0-3.051,0.077-3.501,0.218C148.055,19.154,147.789,19.55,147.699,20.199
	 M135.076,24.195h5.353c-0.052,1.168-0.17,2.062-0.359,2.674c-0.188,0.617-0.51,1.156-0.967,1.621
	c-0.667,0.686-1.582,1.14-2.726,1.367c-1.14,0.225-3.089,0.342-5.84,0.342c-2.164,0-3.784-0.094-4.863-0.275
	c-1.079-0.188-1.968-0.523-2.682-1.018c-0.668-0.479-1.142-1.17-1.398-2.064c-0.27-0.895-0.396-2.269-0.396-4.123
	c0-1.693,0.124-2.971,0.362-3.832c0.243-0.861,0.672-1.543,1.295-2.045c0.676-0.537,1.569-0.908,2.696-1.113
	c1.125-0.203,2.869-0.307,5.249-0.307c2.328,0,4.084,0.104,5.267,0.314c1.186,0.213,2.114,0.59,2.779,1.119
	c0.564,0.457,0.954,1.018,1.182,1.679c0.23,0.657,0.363,1.647,0.415,2.966h-5.349c-0.092-0.801-0.448-1.355-1.072-1.664
	c-0.615-0.303-1.7-0.455-3.237-0.455c-1.555,0-2.64,0.145-3.26,0.434c-0.385,0.195-0.661,0.525-0.827,0.996
	c-0.165,0.467-0.249,1.162-0.249,2.079c0,0.9,0.087,1.563,0.264,1.987c0.174,0.429,0.48,0.731,0.926,0.927
	c0.657,0.292,1.733,0.435,3.216,0.435c1.549,0,2.606-0.138,3.183-0.42C134.614,25.537,134.957,24.996,135.076,24.195"/>
<path fill="#FFFFFF" d="M295.525,13.445c0.344,0,0.601-0.037,0.772-0.12c0.17-0.083,0.258-0.271,0.258-0.567
	c0-0.232-0.088-0.393-0.258-0.48c-0.172-0.094-0.395-0.139-0.66-0.139h-0.875v1.307H295.525z M294.763,15.817h-0.642v-4.221h1.611
	c0.504,0,0.877,0.095,1.122,0.29c0.244,0.193,0.365,0.497,0.365,0.912c0,0.354-0.093,0.623-0.293,0.812
	c-0.197,0.187-0.461,0.303-0.801,0.347l1.202,1.859h-0.718l-1.111-1.83h-0.736V15.817z M295.538,16.758
	c0.841,0,1.542-0.293,2.113-0.872c0.564-0.579,0.851-1.312,0.851-2.188c0-0.858-0.288-1.582-0.855-2.167
	c-0.575-0.582-1.278-0.879-2.108-0.879c-0.835,0-1.546,0.293-2.122,0.877c-0.573,0.58-0.862,1.303-0.862,2.169
	c0,0.871,0.287,1.599,0.86,2.185C293.981,16.464,294.688,16.758,295.538,16.758 M291.819,13.698c0-1.037,0.363-1.911,1.093-2.605
	c0.729-0.697,1.604-1.05,2.626-1.05c1.015,0,1.88,0.357,2.607,1.051c0.73,0.705,1.09,1.57,1.09,2.604
	c0,1.05-0.354,1.928-1.081,2.623c-0.714,0.698-1.591,1.048-2.616,1.048c-1.024,0-1.903-0.35-2.63-1.051
	C292.18,15.619,291.819,14.744,291.819,13.698"/>
<g>
	<path fill="#FFFFFF" d="M121.945,40.734c0-0.531,0.047-0.982,0.142-1.346c0.095-0.366,0.221-0.654,0.372-0.867
		c0.155-0.213,0.374-0.376,0.664-0.494c0.289-0.117,0.583-0.195,0.881-0.232c0.297-0.033,0.68-0.058,1.15-0.065h0.203
		c0.596,0.008,1.067,0.045,1.416,0.107c0.348,0.062,0.673,0.195,0.975,0.394c0.303,0.198,0.516,0.501,0.642,0.907
		c0.127,0.406,0.19,0.938,0.19,1.597v2.832c0,0.656-0.062,1.19-0.19,1.596c-0.126,0.406-0.339,0.71-0.642,0.91
		c-0.302,0.195-0.627,0.328-0.975,0.391c-0.349,0.062-0.819,0.098-1.416,0.108h-0.203c-0.47-0.011-0.853-0.033-1.15-0.068
		c-0.298-0.035-0.592-0.112-0.881-0.23c-0.29-0.117-0.509-0.28-0.664-0.493c-0.151-0.213-0.277-0.502-0.372-0.867
		c-0.095-0.366-0.142-0.812-0.142-1.346V40.734z M127.793,43.523v-2.749c0-0.461-0.032-0.835-0.093-1.13
		c-0.064-0.294-0.144-0.524-0.238-0.697c-0.095-0.17-0.257-0.298-0.487-0.378c-0.231-0.083-0.452-0.133-0.663-0.155
		c-0.213-0.023-0.532-0.035-0.956-0.035h-0.203c-0.352,0-0.622,0.007-0.806,0.02c-0.186,0.016-0.385,0.045-0.602,0.098
		c-0.217,0.048-0.376,0.12-0.474,0.221c-0.101,0.101-0.198,0.238-0.292,0.421c-0.095,0.181-0.158,0.401-0.19,0.662
		c-0.031,0.263-0.046,0.589-0.046,0.975v2.749c0,0.391,0.015,0.714,0.046,0.978c0.032,0.261,0.095,0.481,0.19,0.661
		c0.094,0.181,0.191,0.321,0.292,0.419c0.098,0.103,0.257,0.176,0.474,0.226s0.416,0.08,0.602,0.093
		c0.185,0.015,0.454,0.022,0.806,0.022h0.203c0.424,0,0.743-0.013,0.956-0.035c0.211-0.022,0.432-0.075,0.663-0.155
		c0.23-0.08,0.392-0.208,0.487-0.379c0.095-0.173,0.174-0.403,0.238-0.696C127.761,44.36,127.793,43.984,127.793,43.523z"/>
	<path fill="#FFFFFF" d="M130.772,40.141h0.746v0.701c0.667-0.541,1.389-0.812,2.165-0.812c0.687,0,1.22,0.178,1.599,0.528
		c0.379,0.354,0.568,0.832,0.568,1.437v4.468h-0.73v-4.185c0-0.602-0.122-1.033-0.366-1.286c-0.243-0.253-0.65-0.378-1.217-0.378
		c-0.381,0-0.738,0.075-1.076,0.228c-0.34,0.155-0.582,0.309-0.727,0.464l-0.215,0.228v4.93h-0.746V40.141z"/>
	<path fill="#FFFFFF" d="M140.346,46.571c-1.056,0-1.754-0.219-2.093-0.657c-0.338-0.438-0.508-1.311-0.508-2.621
		c0-1.326,0.173-2.2,0.516-2.626c0.342-0.424,1.036-0.637,2.084-0.637c0.389,0,0.759,0.06,1.109,0.178
		c0.353,0.118,0.601,0.23,0.745,0.336h0.082v-2.707h0.731v8.626h-0.65l-0.053-0.568l-0.041-0.016
		c-0.198,0.173-0.473,0.331-0.827,0.477C141.089,46.498,140.725,46.571,140.346,46.571z M138.491,43.293
		c0,0.381,0.003,0.679,0.013,0.895c0.008,0.218,0.034,0.446,0.074,0.685c0.042,0.24,0.1,0.421,0.177,0.541
		c0.077,0.123,0.184,0.238,0.325,0.346c0.14,0.107,0.312,0.183,0.516,0.223c0.2,0.041,0.453,0.061,0.75,0.061
		c0.361,0,0.705-0.065,1.029-0.195c0.324-0.133,0.555-0.258,0.69-0.386l0.217-0.203v-4.035c-0.18-0.163-0.444-0.313-0.792-0.453
		c-0.347-0.141-0.729-0.211-1.144-0.211c-0.253,0-0.474,0.018-0.664,0.056c-0.19,0.035-0.35,0.08-0.481,0.135
		c-0.129,0.056-0.241,0.146-0.329,0.271c-0.092,0.126-0.163,0.248-0.211,0.363c-0.049,0.118-0.087,0.289-0.114,0.509
		c-0.03,0.224-0.045,0.429-0.05,0.624C138.494,42.709,138.491,42.97,138.491,43.293z"/>
	<path fill="#FFFFFF" d="M147.834,46.571c-1.111,0-1.838-0.216-2.182-0.649c-0.344-0.434-0.514-1.311-0.514-2.629
		c0-1.315,0.17-2.19,0.514-2.619c0.343-0.429,1.07-0.644,2.182-0.644c1.109,0,1.836,0.215,2.18,0.644
		c0.341,0.429,0.514,1.304,0.514,2.619v0.067h-4.659c0,0.434,0.009,0.77,0.028,1.01c0.018,0.238,0.06,0.484,0.127,0.729
		c0.068,0.251,0.173,0.434,0.313,0.552c0.14,0.115,0.332,0.21,0.574,0.283c0.245,0.072,0.551,0.107,0.923,0.107
		c0.81,0,1.663-0.208,2.558-0.621v0.621C149.462,46.396,148.609,46.571,147.834,46.571z M145.869,42.834h3.928
		c-0.009-0.443-0.037-0.789-0.083-1.042c-0.043-0.253-0.133-0.481-0.269-0.685c-0.137-0.203-0.333-0.346-0.589-0.426
		c-0.257-0.083-0.597-0.123-1.021-0.123s-0.766,0.04-1.024,0.123c-0.259,0.08-0.455,0.223-0.588,0.426
		c-0.137,0.203-0.227,0.432-0.273,0.685C145.906,42.045,145.878,42.391,145.869,42.834z"/>
	<path fill="#FFFFFF" d="M160.438,40.674c0.344,0.429,0.513,1.304,0.513,2.619c0,1.318-0.169,2.195-0.513,2.629
		c-0.345,0.434-1.068,0.649-2.18,0.649c-1.109,0-1.839-0.216-2.181-0.649c-0.343-0.434-0.517-1.311-0.517-2.629
		c0-1.315,0.174-2.19,0.517-2.619c0.342-0.429,1.071-0.644,2.181-0.644C159.37,40.03,160.094,40.245,160.438,40.674z
		 M160.207,44.188c0.009-0.198,0.017-0.496,0.017-0.895c0-0.396-0.008-0.694-0.017-0.893c-0.008-0.2-0.03-0.421-0.067-0.671
		c-0.034-0.248-0.093-0.427-0.175-0.542c-0.082-0.112-0.196-0.228-0.338-0.346c-0.145-0.115-0.327-0.192-0.548-0.228
		c-0.223-0.038-0.496-0.056-0.82-0.056c-0.326,0-0.598,0.018-0.819,0.056c-0.221,0.035-0.404,0.112-0.549,0.228
		c-0.146,0.118-0.259,0.233-0.339,0.346c-0.08,0.115-0.141,0.294-0.176,0.542c-0.034,0.25-0.06,0.471-0.068,0.671
		c-0.007,0.198-0.012,0.496-0.012,0.893c0,0.398,0.005,0.696,0.012,0.895c0.009,0.2,0.034,0.424,0.068,0.68
		c0.035,0.25,0.096,0.433,0.176,0.546c0.08,0.112,0.193,0.226,0.339,0.338c0.145,0.113,0.33,0.19,0.554,0.23
		c0.228,0.041,0.498,0.061,0.814,0.061s0.587-0.02,0.812-0.061c0.227-0.04,0.412-0.117,0.557-0.23
		c0.142-0.112,0.256-0.226,0.338-0.338c0.082-0.113,0.141-0.296,0.175-0.546C160.177,44.611,160.199,44.388,160.207,44.188z"/>
	<path fill="#FFFFFF" d="M169.185,38.258c-0.613,0-1.042,0.126-1.286,0.376c-0.243,0.256-0.363,0.699-0.363,1.328v0.179h1.881v0.526
		h-1.881v5.796h-0.746v-5.796h-0.935v-0.526h0.935c0-0.86,0.2-1.477,0.602-1.85c0.401-0.376,0.983-0.562,1.742-0.562h0.675v0.528
		H169.185z"/>
	<path fill="#FFFFFF" d="M175.604,46.463h-0.733v-0.704c-0.665,0.541-1.395,0.812-2.178,0.812c-0.688,0-1.221-0.176-1.599-0.529
		c-0.38-0.351-0.567-0.829-0.567-1.436v-4.466h0.743v4.183c0,0.604,0.121,1.032,0.366,1.288c0.242,0.25,0.65,0.378,1.217,0.378
		c0.381,0,0.737-0.077,1.071-0.23c0.334-0.152,0.575-0.306,0.731-0.461l0.215-0.23v-4.927h0.733V46.463z"/>
	<path fill="#FFFFFF" d="M178.23,44.621v-3.954h-0.935v-0.526h0.935v-1.571h0.744v1.571h2.167v0.526h-2.167v4.05
		c0,0.405,0.074,0.701,0.225,0.887c0.149,0.183,0.414,0.275,0.804,0.275h1.139v0.584h-1.03c-0.659,0-1.137-0.133-1.434-0.4
		C178.379,45.797,178.23,45.315,178.23,44.621z"/>
	<path fill="#FFFFFF" d="M187.561,46.463h-0.734v-0.704c-0.668,0.541-1.392,0.812-2.178,0.812c-0.687,0-1.22-0.176-1.599-0.529
		c-0.377-0.351-0.57-0.829-0.57-1.436v-4.466h0.746v4.183c0,0.604,0.121,1.032,0.365,1.288c0.246,0.25,0.652,0.378,1.219,0.378
		c0.381,0,0.736-0.077,1.071-0.23c0.333-0.152,0.577-0.306,0.73-0.461l0.215-0.23v-4.927h0.734V46.463z"/>
	<path fill="#FFFFFF" d="M190.009,40.141h0.693v0.759c0.522-0.509,1.153-0.759,1.894-0.759h0.42v0.621
		c-0.109-0.01-0.303-0.013-0.582-0.013c-0.334,0-0.64,0.068-0.922,0.203c-0.279,0.136-0.473,0.266-0.581,0.391l-0.176,0.206v4.914
		h-0.746V40.141z"/>
	<path fill="#FFFFFF" d="M198.92,40.674c0.343,0.429,0.514,1.304,0.514,2.619c0,1.318-0.171,2.195-0.514,2.629
		c-0.345,0.434-1.07,0.649-2.183,0.649c-1.109,0-1.834-0.216-2.18-0.649c-0.341-0.434-0.513-1.311-0.513-2.629
		c0-1.315,0.172-2.19,0.513-2.619c0.346-0.429,1.07-0.644,2.18-0.644C197.85,40.03,198.575,40.245,198.92,40.674z M198.689,44.188
		c0.009-0.198,0.014-0.496,0.014-0.895c0-0.396-0.005-0.694-0.014-0.893c-0.008-0.2-0.033-0.421-0.068-0.671
		c-0.036-0.248-0.094-0.427-0.178-0.542c-0.08-0.112-0.19-0.228-0.336-0.346c-0.146-0.115-0.328-0.192-0.55-0.228
		c-0.221-0.038-0.495-0.056-0.82-0.056s-0.595,0.018-0.816,0.056c-0.224,0.035-0.406,0.112-0.549,0.228
		c-0.146,0.118-0.258,0.233-0.338,0.346c-0.082,0.115-0.142,0.294-0.177,0.542c-0.036,0.25-0.061,0.471-0.069,0.671
		c-0.01,0.198-0.011,0.496-0.011,0.893c0,0.398,0.001,0.696,0.011,0.895c0.009,0.2,0.033,0.424,0.069,0.68
		c0.035,0.25,0.095,0.433,0.177,0.546c0.08,0.112,0.192,0.226,0.338,0.338c0.143,0.113,0.33,0.19,0.554,0.23
		c0.226,0.041,0.498,0.061,0.812,0.061c0.316,0,0.589-0.02,0.814-0.061c0.227-0.04,0.409-0.117,0.556-0.23
		c0.146-0.112,0.256-0.226,0.336-0.338c0.084-0.113,0.142-0.296,0.178-0.546C198.656,44.611,198.682,44.388,198.689,44.188z"/>
	<path fill="#FFFFFF" d="M207.219,40.599c-0.641,0-1.096,0.088-1.367,0.264c-0.271,0.173-0.406,0.436-0.406,0.786
		c0,0.15,0.036,0.289,0.107,0.409c0.074,0.12,0.153,0.218,0.238,0.29c0.087,0.07,0.229,0.144,0.423,0.214
		c0.192,0.072,0.348,0.122,0.462,0.147c0.111,0.03,0.301,0.072,0.564,0.138c0.288,0.067,0.505,0.12,0.653,0.155
		c0.15,0.038,0.343,0.103,0.582,0.198c0.237,0.098,0.418,0.2,0.541,0.309c0.119,0.112,0.229,0.255,0.329,0.44
		c0.1,0.184,0.147,0.394,0.147,0.632c0,0.413-0.062,0.757-0.189,1.03c-0.127,0.268-0.315,0.474-0.567,0.608
		c-0.254,0.136-0.516,0.229-0.794,0.276c-0.276,0.05-0.606,0.075-0.996,0.075c-0.982,0-1.78-0.139-2.396-0.422l0.19-0.594
		c0.649,0.296,1.378,0.446,2.181,0.446c0.702,0,1.185-0.09,1.44-0.271c0.257-0.181,0.385-0.501,0.385-0.963
		c0-0.18-0.036-0.338-0.111-0.476c-0.079-0.136-0.16-0.243-0.246-0.323c-0.085-0.083-0.228-0.16-0.426-0.238
		c-0.198-0.075-0.355-0.128-0.469-0.155c-0.112-0.027-0.302-0.073-0.562-0.136c-0.28-0.067-0.497-0.117-0.654-0.157
		c-0.159-0.038-0.352-0.104-0.575-0.201c-0.227-0.093-0.4-0.195-0.521-0.308c-0.124-0.115-0.232-0.269-0.325-0.461
		c-0.095-0.196-0.144-0.414-0.144-0.657c0-1.085,0.761-1.626,2.275-1.626c0.909,0,1.644,0.064,2.191,0.19v0.664
		C208.488,40.694,207.832,40.599,207.219,40.599z"/>
	<path fill="#FFFFFF" d="M213.773,46.571c-1.11,0-1.839-0.216-2.18-0.649c-0.343-0.434-0.518-1.311-0.518-2.629
		c0-1.315,0.175-2.19,0.518-2.619c0.341-0.429,1.069-0.644,2.18-0.644c1.108,0,1.835,0.215,2.179,0.644s0.515,1.304,0.515,2.619
		v0.067h-4.656c0,0.434,0.008,0.77,0.026,1.01c0.017,0.238,0.061,0.484,0.128,0.729c0.066,0.251,0.172,0.434,0.311,0.552
		c0.142,0.115,0.334,0.21,0.575,0.283c0.245,0.072,0.552,0.107,0.923,0.107c0.812,0,1.664-0.208,2.56-0.621v0.621
		C215.402,46.396,214.549,46.571,213.773,46.571z M211.811,42.834h3.926c-0.01-0.443-0.037-0.789-0.081-1.042
		c-0.047-0.253-0.137-0.481-0.272-0.685c-0.134-0.203-0.33-0.346-0.589-0.426c-0.255-0.083-0.596-0.123-1.021-0.123
		c-0.424,0-0.766,0.04-1.024,0.123c-0.255,0.08-0.452,0.223-0.587,0.426s-0.228,0.432-0.273,0.685
		C211.846,42.045,211.818,42.391,211.811,42.834z"/>
	<path fill="#FFFFFF" d="M224.387,38.258c-0.613,0-1.043,0.126-1.285,0.376c-0.244,0.256-0.366,0.699-0.366,1.328v0.179h1.882v0.526
		h-1.882v5.796h-0.745v-5.796h-0.935v-0.526h0.935c0-0.86,0.201-1.477,0.604-1.85c0.402-0.376,0.979-0.562,1.737-0.562h0.679v0.528
		H224.387z"/>
	<path fill="#FFFFFF" d="M230.589,42.183v4.28h-0.733v-0.611h-0.052c-0.479,0.481-1.155,0.72-2.03,0.72
		c-0.725,0-1.286-0.144-1.694-0.437c-0.406-0.286-0.608-0.787-0.608-1.501c0-0.604,0.242-1.065,0.725-1.379
		c0.482-0.317,1.066-0.476,1.752-0.476h1.897v-0.283c0-0.832-0.107-1.355-0.324-1.571c-0.217-0.218-0.729-0.326-1.531-0.326
		c-0.597,0-1.228,0.096-1.896,0.286v-0.664c0.551-0.126,1.202-0.19,1.951-0.19c0.884,0,1.528,0.143,1.935,0.429
		C230.385,40.742,230.589,41.318,230.589,42.183z M226.187,44.676c0,0.913,0.511,1.366,1.533,1.366c0.241,0,0.469-0.018,0.682-0.053
		c0.212-0.035,0.436-0.098,0.671-0.183c0.236-0.085,0.422-0.226,0.561-0.421c0.141-0.193,0.212-0.427,0.212-0.697v-1.381h-1.801
		c-0.3,0-0.576,0.033-0.832,0.101c-0.258,0.067-0.493,0.211-0.705,0.429C226.294,44.053,226.187,44.333,226.187,44.676z"/>
	<path fill="#FFFFFF" d="M232.283,40.141h4.445v0.616l-3.905,5.095h3.979v0.611h-4.682v-0.677l3.817-5.064h-3.655V40.141z"/>
	<path fill="#FFFFFF" d="M244.875,46.571c-0.77,0-1.415-0.198-1.938-0.597v2.789h-0.744v-8.623h0.69l0.054,0.514
		c0.67-0.416,1.35-0.624,2.044-0.624c0.633,0,1.116,0.08,1.452,0.238c0.333,0.157,0.586,0.474,0.763,0.947
		c0.177,0.476,0.265,1.167,0.265,2.077c0,1.311-0.167,2.183-0.501,2.621S245.929,46.571,244.875,46.571z M246.729,43.293
		c0-0.459-0.01-0.81-0.027-1.055c-0.02-0.243-0.06-0.494-0.123-0.745c-0.062-0.253-0.162-0.436-0.299-0.549
		c-0.135-0.112-0.314-0.205-0.541-0.277c-0.226-0.07-0.514-0.108-0.864-0.108c-0.417,0-0.799,0.08-1.146,0.246
		c-0.346,0.16-0.611,0.328-0.792,0.501v3.979c0.054,0.053,0.13,0.123,0.231,0.208c0.098,0.088,0.313,0.2,0.65,0.341
		c0.333,0.138,0.685,0.208,1.057,0.208c0.351,0,0.639-0.035,0.864-0.107c0.227-0.073,0.406-0.168,0.541-0.283
		c0.137-0.118,0.236-0.304,0.299-0.557c0.063-0.251,0.104-0.504,0.123-0.752C246.72,44.095,246.729,43.744,246.729,43.293z"/>
	<path fill="#FFFFFF" d="M249.464,40.141h0.688v0.759c0.524-0.509,1.155-0.759,1.897-0.759h0.418v0.621
		c-0.107-0.01-0.302-0.013-0.58-0.013c-0.334,0-0.643,0.068-0.921,0.203c-0.28,0.136-0.475,0.266-0.582,0.391l-0.176,0.206v4.914
		h-0.745V40.141z"/>
	<path fill="#FFFFFF" d="M256.191,46.571c-1.109,0-1.836-0.216-2.18-0.649c-0.342-0.434-0.515-1.311-0.515-2.629
		c0-1.315,0.173-2.19,0.515-2.619c0.344-0.429,1.07-0.644,2.18-0.644c1.111,0,1.84,0.215,2.183,0.644s0.513,1.304,0.513,2.619v0.067
		h-4.658c0,0.434,0.009,0.77,0.027,1.01c0.02,0.238,0.063,0.484,0.13,0.729c0.066,0.251,0.17,0.434,0.312,0.552
		c0.138,0.115,0.33,0.21,0.575,0.283c0.243,0.072,0.55,0.107,0.919,0.107c0.814,0,1.667-0.208,2.56-0.621v0.621
		C257.821,46.396,256.971,46.571,256.191,46.571z M254.229,42.834h3.928c-0.009-0.443-0.038-0.789-0.082-1.042
		c-0.043-0.253-0.135-0.481-0.271-0.685c-0.135-0.203-0.33-0.346-0.587-0.426c-0.259-0.083-0.6-0.123-1.024-0.123
		c-0.423,0-0.764,0.04-1.021,0.123c-0.257,0.08-0.452,0.223-0.589,0.426c-0.136,0.203-0.226,0.432-0.27,0.685
		C254.265,42.045,254.237,42.391,254.229,42.834z"/>
	<path fill="#FFFFFF" d="M262.828,40.599c-0.642,0-1.098,0.088-1.369,0.264c-0.27,0.173-0.403,0.436-0.403,0.786
		c0,0.15,0.033,0.289,0.108,0.409c0.07,0.12,0.149,0.218,0.237,0.29c0.085,0.07,0.226,0.144,0.42,0.214
		c0.195,0.072,0.35,0.122,0.463,0.147c0.113,0.03,0.303,0.072,0.564,0.138c0.287,0.067,0.505,0.12,0.654,0.155
		c0.148,0.038,0.343,0.103,0.58,0.198c0.237,0.098,0.419,0.2,0.54,0.309c0.122,0.112,0.23,0.255,0.329,0.44
		c0.102,0.184,0.15,0.394,0.15,0.632c0,0.413-0.062,0.757-0.191,1.03c-0.124,0.268-0.313,0.474-0.566,0.608
		c-0.253,0.136-0.518,0.229-0.795,0.276c-0.274,0.05-0.606,0.075-0.993,0.075c-0.985,0-1.783-0.139-2.397-0.422l0.19-0.594
		c0.649,0.296,1.376,0.446,2.178,0.446c0.706,0,1.186-0.09,1.445-0.271c0.256-0.181,0.386-0.501,0.386-0.963
		c0-0.18-0.04-0.338-0.116-0.476c-0.077-0.136-0.159-0.243-0.243-0.323c-0.087-0.083-0.228-0.16-0.428-0.238
		c-0.196-0.075-0.354-0.128-0.466-0.155c-0.115-0.027-0.302-0.073-0.565-0.136c-0.279-0.067-0.499-0.117-0.655-0.157
		c-0.156-0.038-0.347-0.104-0.574-0.201c-0.226-0.093-0.399-0.195-0.521-0.308c-0.122-0.115-0.231-0.269-0.326-0.461
		c-0.094-0.196-0.141-0.414-0.141-0.657c0-1.085,0.757-1.626,2.274-1.626c0.911,0,1.642,0.064,2.194,0.19v0.664
		C264.097,40.694,263.442,40.599,262.828,40.599z"/>
	<path fill="#FFFFFF" d="M269.381,46.571c-1.109,0-1.836-0.216-2.181-0.649c-0.341-0.434-0.514-1.311-0.514-2.629
		c0-1.315,0.173-2.19,0.514-2.619c0.345-0.429,1.071-0.644,2.181-0.644c1.108,0,1.837,0.215,2.18,0.644
		c0.345,0.429,0.516,1.304,0.516,2.619v0.067h-4.658c0,0.434,0.009,0.77,0.027,1.01c0.017,0.238,0.061,0.484,0.13,0.729
		c0.066,0.251,0.17,0.434,0.311,0.552c0.138,0.115,0.329,0.21,0.574,0.283c0.245,0.072,0.55,0.107,0.921,0.107
		c0.814,0,1.667-0.208,2.56-0.621v0.621C271.011,46.396,270.157,46.571,269.381,46.571z M267.418,42.834h3.925
		c-0.008-0.443-0.035-0.789-0.079-1.042c-0.046-0.253-0.138-0.481-0.271-0.685c-0.137-0.203-0.332-0.346-0.588-0.426
		c-0.258-0.083-0.599-0.123-1.023-0.123s-0.766,0.04-1.021,0.123c-0.257,0.08-0.455,0.223-0.589,0.426
		c-0.137,0.203-0.226,0.432-0.272,0.685C267.455,42.045,267.427,42.391,267.418,42.834z"/>
	<path fill="#FFFFFF" d="M273.889,40.141h0.746v0.701c0.668-0.541,1.39-0.812,2.166-0.812c0.686,0,1.218,0.178,1.6,0.528
		c0.377,0.354,0.567,0.832,0.567,1.437v4.468h-0.732v-4.185c0-0.602-0.121-1.033-0.363-1.286c-0.245-0.253-0.651-0.378-1.22-0.378
		c-0.379,0-0.738,0.075-1.078,0.228c-0.337,0.155-0.579,0.309-0.725,0.464l-0.215,0.228v4.93h-0.746V40.141z"/>
	<path fill="#FFFFFF" d="M281.35,44.621v-3.954h-0.935v-0.526h0.935v-1.571h0.744v1.571h2.169v0.526h-2.169v4.05
		c0,0.405,0.074,0.701,0.225,0.887c0.148,0.183,0.417,0.275,0.807,0.275h1.138v0.584h-1.031c-0.66,0-1.138-0.133-1.435-0.4
		C281.5,45.797,281.35,45.315,281.35,44.621z"/>
	<path fill="#FFFFFF" d="M288.242,46.571c-1.111,0-1.838-0.216-2.179-0.649c-0.344-0.434-0.518-1.311-0.518-2.629
		c0-1.315,0.174-2.19,0.518-2.619c0.341-0.429,1.067-0.644,2.179-0.644s1.836,0.215,2.18,0.644c0.343,0.429,0.515,1.304,0.515,2.619
		v0.067h-4.659c0,0.434,0.011,0.77,0.028,1.01c0.018,0.238,0.06,0.484,0.129,0.729c0.067,0.251,0.172,0.434,0.311,0.552
		c0.142,0.115,0.333,0.21,0.577,0.283c0.242,0.072,0.549,0.107,0.92,0.107c0.812,0,1.664-0.208,2.558-0.621v0.621
		C289.871,46.396,289.019,46.571,288.242,46.571z M286.277,42.834h3.929c-0.01-0.443-0.038-0.789-0.081-1.042
		c-0.047-0.253-0.137-0.481-0.272-0.685c-0.134-0.203-0.331-0.346-0.589-0.426c-0.256-0.083-0.597-0.123-1.021-0.123
		c-0.423,0-0.764,0.04-1.023,0.123c-0.256,0.08-0.452,0.223-0.588,0.426c-0.137,0.203-0.227,0.432-0.271,0.685
		C286.314,42.045,286.288,42.391,286.277,42.834z"/>
</g>
</svg>
